:FULLY-SPECIFIED
:FORCE-ALL-JOINTS-BE-3DOF
:DEGREES
1835
root 6.09747 14.0807 27.868 1048.77 61.2492 329.313
lfemur -47.4645 15.0558 -0.258204
ltibia 48.1338 0 0
lfoot 10.1742 -0.00207173 0
ltoes -11.8481 0 0
rfemur -2.96446 -9.85298 19.4701
rtibia 51.5289 0 0
rfoot -24.2756 -28.0979 0
rtoes -24.5978 0 0
lowerback 13.8874 4.25477 3.69777
upperback -0.729405 6.62799 3.44714
thorax -8.5553 3.15405 0.224969
lowerneck -3.89283 5.86781 -0.688174
upperneck 9.0686 7.77023 2.37932
head 3.95544 3.96151 1.15256
lclavicle -4.40812e-15 -2.35011e-14 0
lhumerus 42.0742 -2.13617 94.7657
lradius 34.768 0 0
lwrist -38.1879 0 0
lhand -29.9206 40.5814 0
lfingers 7.12502 0 0
lthumb -3.2428 70.4511 0
rclavicle -4.40812e-15 -2.35011e-14 0
rhumerus -40.7302 26.8652 -84.0338
rradius 127.11 0 0
rwrist -84.906 0 0
rhand -0.777711 -188.708 0
rfingers 7.12502 0 0
rthumb 23.3653 109.462 0
1836
root 6.19063 14.0569 27.8684 1049.06 60.5687 329.328
lfemur -47.9743 16.0048 -0.141165
ltibia 49.7635 0 0
lfoot 8.7884 -0.552757 0
ltoes -12.8891 0 0
rfemur -2.4971 -9.50244 19.3432
rtibia 51.1975 0 0
rfoot -24.3127 -28.2615 0
rtoes -24.9082 0 0
lowerback 13.9082 4.31432 3.84972
upperback -0.721218 6.74317 3.53591
thorax -8.5507 3.20616 0.21139
lowerneck -3.77859 6.25697 -0.339458
upperneck 8.86063 8.3003 2.00005
head 3.9193 4.21794 0.997488
lclavicle -6.05061e-15 -2.51302e-14 0
lhumerus 43.151 -0.953504 95.8011
lradius 33.3048 0 0
lwrist -41.3307 0 0
lhand -29.9123 40.5496 0
lfingers 7.12502 0 0
lthumb -3.23486 70.4199 0
rclavicle -6.05061e-15 -2.51302e-14 0
rhumerus -42.9403 25.8506 -83.954
rradius 126.989 0 0
rwrist -87.6878 0 0
rhand -4.63987 -203.855 0
rfingers 7.12502 0 0
rthumb 19.7527 120.222 0
1837
root 6.28379 14.0332 27.8688 1049.47 59.8718 329.447
lfemur -48.523 17.0257 -0.0134113
ltibia 51.4853 0 0
lfoot 7.33775 -1.14713 0
ltoes -13.9789 0 0
rfemur -1.98292 -9.12349 19.208
rtibia 50.8437 0 0
rfoot -24.3595 -28.4377 0
rtoes -25.2586 0 0
lowerback 13.9278 4.37634 4.01956
upperback -0.71315 6.86568 3.63322
thorax -8.54448 3.26127 0.195689
lowerneck -3.66273 6.68449 0.0423426
upperneck 8.64806 8.88283 1.58251
head 3.88142 4.50013 0.827415
lclavicle -7.88056e-15 -2.68962e-14 0
lhumerus 44.3708 0.31227 96.8895
lradius 31.7033 0 0
lwrist -44.7211 0 0
lhand -29.9233 40.5259 0
lfingers 7.12502 0 0
lthumb -3.24538 70.3976 0
rclavicle -7.88056e-15 -2.68962e-14 0
rhumerus -45.2979 24.7688 -83.8876
rradius 126.873 0 0
rwrist -90.6926 0 0
rhand -8.73532 -220.026 0
rfingers 7.12502 0 0
rthumb 15.9207 131.75 0
1838
root 6.37695 14.0094 27.8693 1050.01 59.1585 329.676
lfemur -49.1122 18.1213 0.125516
ltibia 53.3018 0 0
lfoot 5.82084 -1.7869 0
ltoes -15.1185 0 0
rfemur -1.41982 -8.71499 19.0641
rtibia 50.4666 0 0
rfoot -24.4167 -28.6269 0
rtoes -25.6508 0 0
lowerback 13.9459 4.44087 4.20814
upperback -0.705224 6.99576 3.73944
thorax -8.53655 3.31947 0.177756
lowerneck -3.54536 7.15208 0.458671
upperneck 8.43101 9.52017 1.12496
head 3.84174 4.80925 0.641676
lclavicle -9.90683e-15 -2.88046e-14 0
lhumerus 45.7407 1.66415 98.0323
lradius 29.9574 0 0
lwrist -48.3688 0 0
lhand -29.9546 40.5107 0
lfingers 7.12502 0 0
lthumb -3.27558 70.3848 0
rclavicle -9.90683e-15 -2.88046e-14 0
rhumerus -47.8082 23.6174 -83.8356
rradius 126.761 0 0
rwrist -93.9292 0 0
rhand -13.0714 -237.258 0
rfingers 7.12502 0 0
rthumb 11.8624 144.075 0
1839
root 6.47011 13.9857 27.8697 1050.68 58.4294 330.023
lfemur -49.7434 19.2943 0.276076
ltibia 55.2159 0 0
lfoot 4.23625 -2.4738 0
ltoes -16.309 0 0
rfemur -0.805706 -8.27581 18.9114
rtibia 50.0656 0 0
rfoot -24.4848 -28.8296 0
rtoes -26.0869 0 0
lowerback 13.9624 4.50794 4.41632
upperback -0.697464 7.13367 3.85495
thorax -8.52682 3.38085 0.157481
lowerneck -3.42663 7.66144 0.910971
upperneck 8.2096 10.2147 0.625694
head 3.80022 5.14645 0.439612
lclavicle -1.21383e-14 -3.08611e-14 0
lhumerus 47.2677 3.10514 99.2307
lradius 28.061 0 0
lwrist -52.2835 0 0
lhand -30.0076 40.5047 0
lfingers 7.12502 0 0
lthumb -3.32668 70.3822 0
rclavicle -1.21383e-14 -3.08611e-14 0
rhumerus -50.4762 22.3942 -83.7992
rradius 126.655 0 0
rwrist -97.4065 0 0
rhand -17.6555 -255.586 0
rfingers 7.12502 0 0
rthumb 7.57097 157.225 0
1840
root 6.56327 13.962 27.8701 1051.5 57.6847 330.494
lfemur -50.4179 20.5475 0.438727
ltibia 57.2301 0 0
lfoot 2.5826 -3.20955 0
ltoes -17.5515 0 0
rfemur -0.138486 -7.80482 18.7495
rtibia 49.6397 0 0
rfoot -24.5644 -29.0464 0
rtoes -26.5688 0 0
lowerback 13.9774 4.57759 4.64495
upperback -0.689895 7.27964 3.98013
thorax -8.51518 3.4455 0.134752
lowerneck -3.30665 8.21429 1.40069
upperneck 7.98397 10.9686 0.0829842
head 3.75682 5.51289 0.220561
lclavicle -1.45838e-14 -3.30711e-14 0
lhumerus 48.9589 4.63824 100.486
lradius 26.0081 0 0
lwrist -56.4748 0 0
lhand -30.0836 40.5085 0
lfingers 7.12502 0 0
lthumb -3.39989 70.3905 0
rclavicle -1.45838e-14 -3.30711e-14 0
rhumerus -53.3069 21.0967 -83.7792
rradius 126.554 0 0
rwrist -101.133 0 0
rhand -22.4948 -275.047 0
rfingers 7.12502 0 0
rthumb 3.03943 171.229 0
